<svg width="60" height="60" viewBox="0 0 60 60" fill="none" xmlns="http://www.w3.org/2000/svg">
<path d="M30 15L27.3187 17.6119L37.7812 28.125H15V31.875H37.7812L27.3187 42.3244L30 45L45 30L30 15Z" fill="#397DFA"/>
<path d="M30 56.25C24.8083 56.25 19.7331 54.7105 15.4163 51.8261C11.0995 48.9417 7.73497 44.842 5.74817 40.0455C3.76137 35.2489 3.24154 29.9709 4.2544 24.8789C5.26726 19.7869 7.76733 15.1096 11.4385 11.4385C15.1096 7.76733 19.7869 5.26726 24.8789 4.2544C29.9709 3.24154 35.2489 3.76137 40.0455 5.74817C44.842 7.73497 48.9417 11.0995 51.8261 15.4163C54.7105 19.7331 56.25 24.8083 56.25 30C56.2421 36.9595 53.4739 43.6317 48.5528 48.5528C43.6317 53.4739 36.9595 56.2421 30 56.25ZM30 7.50001C25.5499 7.50001 21.1998 8.81961 17.4997 11.2919C13.7996 13.7643 10.9157 17.2783 9.21272 21.3896C7.50975 25.501 7.06418 30.025 7.93234 34.3895C8.80051 38.7541 10.9434 42.7632 14.0901 45.9099C17.2368 49.0566 21.2459 51.1995 25.6105 52.0677C29.9751 52.9358 34.4991 52.4903 38.6104 50.7873C42.7217 49.0843 46.2357 46.2004 48.7081 42.5003C51.1804 38.8002 52.5 34.4501 52.5 30C52.4931 24.0348 50.1203 18.3158 45.9022 14.0978C41.6842 9.87972 35.9653 7.50696 30 7.50001Z" fill="#397DFA"/>
</svg>
