<svg width="60" height="60" viewBox="0 0 60 60" fill="none" xmlns="http://www.w3.org/2000/svg">
<path d="M30 45L32.6813 42.3881L22.2188 31.875L45 31.875V28.125L22.2188 28.125L32.6813 17.6756L30 15L15 30L30 45Z" fill="#397DFA"/>
<path d="M30 3.74999C35.1917 3.74999 40.2669 5.28952 44.5837 8.17391C48.9005 11.0583 52.265 15.158 54.2518 19.9545C56.2386 24.7511 56.7585 30.0291 55.7456 35.1211C54.7327 40.2131 52.2327 44.8904 48.5615 48.5615C44.8904 52.2327 40.2131 54.7327 35.1211 55.7456C30.0291 56.7585 24.7511 56.2386 19.9545 54.2518C15.158 52.265 11.0583 48.9005 8.17391 44.5837C5.28952 40.2669 3.74999 35.1917 3.74999 30C3.75793 23.0405 6.5261 16.3683 11.4472 11.4472C16.3683 6.5261 23.0405 3.75793 30 3.74999ZM30 52.5C34.4501 52.5 38.8002 51.1804 42.5003 48.7081C46.2004 46.2357 49.0843 42.7217 50.7873 38.6104C52.4902 34.499 52.9358 29.975 52.0677 25.6105C51.1995 21.2459 49.0566 17.2368 45.9099 14.0901C42.7632 10.9434 38.7541 8.80049 34.3895 7.93232C30.0249 7.06416 25.5009 7.50973 21.3896 9.2127C17.2783 10.9157 13.7643 13.7996 11.2919 17.4997C8.81959 21.1998 7.49999 25.5499 7.49999 30C7.50694 35.9652 9.8797 41.6842 14.0978 45.9022C18.3158 50.1203 24.0347 52.493 30 52.5Z" fill="#397DFA"/>
</svg>
