<svg width="46" height="46" viewBox="0 0 46 46" fill="none" xmlns="http://www.w3.org/2000/svg">
<path fill-rule="evenodd" clip-rule="evenodd" d="M4.44191 30.8671C-1.31074 16.3591 9.07627 0.483643 24.3203 0.483643H25.1417C27.853 0.483643 30.5377 1.03242 33.0426 2.09864C35.5475 3.16486 37.8235 4.72765 39.7407 6.69777C41.6579 8.66789 43.1786 11.0068 44.2162 13.5809C45.2538 16.1549 45.7878 18.9138 45.7878 21.7C45.7878 27.9644 43.3662 33.9722 39.0556 38.4018C34.7451 42.8314 28.8988 45.3199 22.8028 45.3199H2.79135C2.39373 45.3203 2.00582 45.1937 1.68122 44.9577C1.35662 44.7218 1.11135 44.388 0.979308 44.0026C0.847267 43.6172 0.834971 43.1991 0.944121 42.8062C1.05327 42.4133 1.27848 42.065 1.58862 41.8093L6.63242 37.6465C6.74026 37.5577 6.81724 37.4354 6.85183 37.298C6.88643 37.1605 6.87679 37.0152 6.82435 36.8839L4.44191 30.8671ZM24.3203 4.42818C11.7991 4.42818 3.26989 17.4636 7.99381 29.3787L10.3788 35.3981C10.7422 36.3157 10.8077 37.3293 10.5657 38.2882C10.3236 39.2471 9.78692 40.1002 9.03533 40.7206L8.2446 41.3754H22.8028C27.8808 41.3754 32.7507 39.3024 36.3414 35.6126C39.9321 31.9227 41.9493 26.9182 41.9493 21.7C41.9493 17.1192 40.1785 12.7261 37.0265 9.48698C33.8744 6.24789 29.5994 4.42818 25.1417 4.42818H24.3203Z" fill="#397DFA"/>
</svg>
