<svg width="20" height="25" viewBox="0 0 20 25" fill="none" xmlns="http://www.w3.org/2000/svg">
<path d="M12.25 1V6C12.25 6.33152 12.3817 6.64946 12.6161 6.88388C12.8505 7.1183 13.1685 7.25 13.5 7.25H18.5" stroke="#397DFA" stroke-width="2" stroke-linecap="round" stroke-linejoin="round"/>
<path d="M16 23.5H3.5C2.83696 23.5 2.20107 23.2366 1.73223 22.7678C1.26339 22.2989 1 21.663 1 21V3.5C1 2.83696 1.26339 2.20107 1.73223 1.73223C2.20107 1.26339 2.83696 1 3.5 1H12.25L18.5 7.25V21C18.5 21.663 18.2366 22.2989 17.7678 22.7678C17.2989 23.2366 16.663 23.5 16 23.5Z" stroke="#397DFA" stroke-width="2" stroke-linecap="round" stroke-linejoin="round"/>
<path d="M8.5 12.875C8.5 12.3777 8.30246 11.9008 7.95083 11.5492C7.59919 11.1975 7.12228 11 6.625 11C6.12772 11 5.65081 11.1975 5.29917 11.5492C4.94754 11.9008 4.75 12.3777 4.75 12.875V16.625C4.75 17.1223 4.94754 17.5992 5.29917 17.9508C5.65081 18.3025 6.12772 18.5 6.625 18.5C7.12228 18.5 7.59919 18.3025 7.95083 17.9508C8.30246 17.5992 8.5 17.1223 8.5 16.625M11 11L12.875 18.5L14.75 11" stroke="#397DFA" stroke-width="2" stroke-linecap="round" stroke-linejoin="round"/>
</svg>
