<svg width="42" height="34" viewBox="0 0 42 34" fill="none" xmlns="http://www.w3.org/2000/svg">
<path d="M4.33333 33.6666C3.1875 33.6666 2.20694 33.2589 1.39167 32.4437C0.576389 31.6284 0.168055 30.6471 0.166667 29.4999V4.49992C0.166667 3.35409 0.575 2.37353 1.39167 1.55825C2.20833 0.742974 3.18889 0.334641 4.33333 0.333252H37.6667C38.8125 0.333252 39.7938 0.741585 40.6104 1.55825C41.4271 2.37492 41.8347 3.35547 41.8333 4.49992V29.4999C41.8333 30.6458 41.4257 31.627 40.6104 32.4437C39.7951 33.2603 38.8139 33.668 37.6667 33.6666H4.33333ZM21 19.0833L4.33333 8.66658V29.4999H37.6667V8.66658L21 19.0833ZM21 14.9166L37.6667 4.49992H4.33333L21 14.9166ZM4.33333 8.66658V4.49992V29.4999V8.66658Z" fill="#397DFA"/>
</svg>
