<svg width="53" height="53" viewBox="0 0 53 53" fill="none" xmlns="http://www.w3.org/2000/svg">
<g clip-path="url(#clip0_95_1092)">
<path d="M11.5938 14.6609H0V52.1276H11.5938V14.6609Z" fill="#397DFA"/>
<path d="M39.755 14.6609C33.125 14.6609 31.2866 16.7981 29.8125 19.5479V14.6609H18.2188V52.1276H29.8125V30.9508C29.8125 27.6928 29.8125 24.4348 35.6094 24.4348C41.4062 24.4348 41.4062 27.6928 41.4062 30.9508V52.1276H53V30.9508C53 21.1768 51.3438 14.6609 39.755 14.6609Z" fill="#397DFA"/>
<path d="M5.79688 11.4029C8.9984 11.4029 11.5938 8.85029 11.5938 5.70146C11.5938 2.55263 8.9984 0 5.79688 0C2.59535 0 0 2.55263 0 5.70146C0 8.85029 2.59535 11.4029 5.79688 11.4029Z" fill="#397DFA"/>
</g>
<defs>
<clipPath id="clip0_95_1092">
<rect width="53" height="52.1277" fill="white"/>
</clipPath>
</defs>
</svg>
