<svg width="74" height="44" viewBox="0 0 74 44" fill="none" xmlns="http://www.w3.org/2000/svg">
<path d="M0.792614 44V0.363635H18.2642C21.4744 0.363635 24.152 0.839488 26.2969 1.79119C28.4418 2.7429 30.054 4.06392 31.1335 5.75426C32.2131 7.4304 32.7528 9.36222 32.7528 11.5497C32.7528 13.2543 32.4119 14.7528 31.7301 16.0455C31.0483 17.3239 30.1108 18.375 28.9176 19.1989C27.7386 20.0085 26.3892 20.5838 24.8693 20.9247V21.3509C26.5313 21.4219 28.0866 21.8906 29.5355 22.7571C30.9986 23.6236 32.1847 24.8381 33.0938 26.4006C34.0028 27.9489 34.4574 29.7955 34.4574 31.9403C34.4574 34.2557 33.8821 36.3224 32.7315 38.1406C31.5952 39.9446 29.9119 41.3722 27.6818 42.4233C25.4517 43.4744 22.7031 44 19.4361 44H0.792614ZM10.0185 36.4574H17.5398C20.1108 36.4574 21.9858 35.9673 23.1648 34.9872C24.3438 33.9929 24.9332 32.6719 24.9332 31.0241C24.9332 29.8168 24.642 28.7514 24.0597 27.8281C23.4773 26.9048 22.6463 26.1804 21.5668 25.6548C20.5014 25.1293 19.2301 24.8665 17.7528 24.8665H10.0185V36.4574ZM10.0185 18.6236H16.858C18.1222 18.6236 19.2443 18.4034 20.2244 17.9631C21.2188 17.5085 22 16.8693 22.5682 16.0455C23.1506 15.2216 23.4418 14.2344 23.4418 13.0838C23.4418 11.5071 22.8807 10.2358 21.7585 9.26989C20.6506 8.30398 19.0739 7.82102 17.0284 7.82102H10.0185V18.6236Z" fill="#397DFA"/>
<path d="M39.9918 44V38.5241L61.7674 7.97017H39.9492V0.363635H73.3583V5.83949L51.5614 36.3935H73.4009V44H39.9918Z" fill="#455A64"/>
</svg>
