<svg width="54" height="54" viewBox="0 0 54 54" fill="none" xmlns="http://www.w3.org/2000/svg">
<path d="M11.2294 20.1762V47.078H2.24587V20.1762H11.2294ZM20.2128 47.078C19.0216 47.078 17.8791 46.6056 17.0367 45.7647C16.1943 44.9239 15.7211 43.7835 15.7211 42.5943V20.1762C15.7211 18.9432 16.2152 17.8223 17.0462 17.0153L31.824 2.2417L34.2046 4.61802C34.811 5.22331 35.1928 6.05278 35.1928 6.97193L35.1254 7.68931L32.9918 17.9344H47.1633C48.3546 17.9344 49.4971 18.4068 50.3394 19.2476C51.1818 20.0885 51.655 21.2289 51.655 22.418V26.9016C51.655 27.4845 51.5427 28.0226 51.3406 28.5382L44.5581 44.343C43.8843 45.9571 42.2897 47.078 40.4257 47.078H20.2128ZM20.2128 42.5943H40.493L47.1633 26.9016V22.418H27.4221L29.9599 10.4916L20.2128 20.2435V42.5943Z" fill="#397DFA"/>
</svg>
