<svg width="60" height="64" viewBox="0 0 60 64" fill="none" xmlns="http://www.w3.org/2000/svg">
<path d="M30 5.31909C26.717 5.31909 23.4661 6.00701 20.4329 7.34357C17.3998 8.68013 14.6438 10.6392 12.3223 13.1088C7.63392 18.0965 5 24.8612 5 31.9148C5 43.6702 12.175 53.6436 22.1 57.1808C23.35 57.3936 23.75 56.5691 23.75 55.851V51.3563C16.825 52.9521 15.35 47.7925 15.35 47.7925C14.2 44.7074 12.575 43.8829 12.575 43.8829C10.3 42.234 12.75 42.2872 12.75 42.2872C15.25 42.4733 16.575 45.0265 16.575 45.0265C18.75 49.0691 22.425 47.8723 23.85 47.234C24.075 45.5053 24.725 44.335 25.425 43.6702C19.875 43.0053 14.05 40.718 14.05 30.585C14.05 27.6329 15 25.2659 16.625 23.3776C16.375 22.7127 15.5 19.9468 16.875 16.3563C16.875 16.3563 18.975 15.6382 23.75 19.0691C25.725 18.484 27.875 18.1914 30 18.1914C32.125 18.1914 34.275 18.484 36.25 19.0691C41.025 15.6382 43.125 16.3563 43.125 16.3563C44.5 19.9468 43.625 22.7127 43.375 23.3776C45 25.2659 45.95 27.6329 45.95 30.585C45.95 40.7446 40.1 42.9787 34.525 43.6436C35.425 44.468 36.25 46.0904 36.25 48.5638V55.851C36.25 56.5691 36.65 57.4202 37.925 57.1808C47.85 53.617 55 43.6702 55 31.9148C55 28.4222 54.3534 24.9638 53.097 21.7371C51.8406 18.5103 49.9991 15.5784 47.6777 13.1088C45.3562 10.6392 42.6002 8.68013 39.5671 7.34357C36.5339 6.00701 33.283 5.31909 30 5.31909Z" fill="#397DFA"/>
</svg>
