<svg width="30" height="30" viewBox="0 0 30 30" fill="none" xmlns="http://www.w3.org/2000/svg">
<path d="M15 0C11.0218 0 7.20644 1.58035 4.3934 4.3934C1.58035 7.20644 0 11.0218 0 15C0 18.9782 1.58035 22.7936 4.3934 25.6066C7.20644 28.4196 11.0218 30 15 30C18.9782 30 22.7936 28.4196 25.6066 25.6066C28.4196 22.7936 30 18.9782 30 15C30 11.0218 28.4196 7.20644 25.6066 4.3934C22.7936 1.58035 18.9782 0 15 0ZM6.13875 8.86125H20.4588C21.1786 8.87173 21.8656 9.16449 22.3718 9.6765C22.8779 10.1885 23.1628 10.8788 23.165 11.5988V18.9275C23.1537 19.6458 22.8634 20.3316 22.3556 20.8397C21.8477 21.3478 21.1621 21.6384 20.4437 21.65H10.05C8.5825 21.65 7.5 20.4125 7.5 18.9275V13.1287L5.62875 9.88125C5.24125 9.35625 5.56625 8.86125 6.13875 8.86125ZM10.4075 11.5988C9.97375 11.5988 9.5575 11.8612 9.5575 12.2787C9.5575 12.6962 9.97375 12.9587 10.4075 12.9587H20.2888C20.7213 12.9587 21.1387 12.6962 21.1387 12.2787C21.1387 11.8612 20.7213 11.5975 20.2888 11.5975L10.4075 11.5988ZM10.4075 14.32C9.97375 14.32 9.5575 14.5825 9.5575 15C9.5575 15.4175 9.97375 15.68 10.4075 15.68H20.2888C20.7213 15.68 21.1387 15.4175 21.1387 15C21.1387 14.5825 20.7213 14.32 20.2888 14.32H10.4075ZM10.3912 17.0575C9.95875 17.0575 9.54125 17.32 9.54125 17.7375C9.54125 18.155 9.95875 18.4175 10.3912 18.4175H17.5513C17.985 18.4175 18.4012 18.155 18.4012 17.7375C18.4012 17.32 17.985 17.0563 17.5513 17.0563L10.3912 17.0575Z" fill="#397DFA"/>
</svg>
