<svg width="50" height="50" viewBox="0 0 50 50" fill="none" xmlns="http://www.w3.org/2000/svg">
<path d="M47.8562 34.2596L35.8048 28.8589C35.2588 28.6249 34.663 28.5309 34.0714 28.5852C33.4799 28.6396 32.9112 28.8406 32.4169 29.1701C32.3668 29.2023 32.319 29.2381 32.2741 29.2773L25.9754 34.6346C25.91 34.6703 25.8373 34.6902 25.7629 34.6928C25.6885 34.6955 25.6145 34.6808 25.5468 34.6499C21.4982 32.6958 17.3042 28.5273 15.3424 24.5348C15.3097 24.468 15.2927 24.3947 15.2927 24.3205C15.2927 24.2462 15.3097 24.1729 15.3424 24.1062L20.7176 17.7284C20.7561 17.6812 20.7919 17.6318 20.8247 17.5804C21.1497 17.0842 21.346 16.5149 21.3959 15.9239C21.4458 15.3329 21.3477 14.7387 21.1104 14.1951L15.748 2.16405C15.4435 1.45384 14.9168 0.861558 14.2471 0.476091C13.5774 0.0906247 12.8007 -0.0672311 12.0336 0.0262152C8.69988 0.464488 5.6398 2.10164 3.4252 4.63174C1.21061 7.16184 -0.0069586 10.4118 2.99178e-05 13.7742C2.99178e-05 33.7494 16.2506 50 36.2257 50C39.588 50.0064 42.8376 48.7887 45.3676 46.5742C47.8976 44.3597 49.5349 41.2999 49.9737 37.9664C50.0669 37.2029 49.9112 36.4297 49.5297 35.7618C49.1482 35.094 48.5613 34.5671 47.8562 34.2596ZM36.2257 46.9386C17.9394 46.9386 3.06136 32.0605 3.06136 13.7742C3.05283 11.1565 3.99762 8.62536 5.71922 6.65352C7.44081 4.68169 9.82142 3.40411 12.4163 3.05949H12.4749C12.5777 3.06141 12.6776 3.09434 12.7613 3.15398C12.8451 3.21362 12.9089 3.29717 12.9443 3.39369L18.3272 15.412C18.3579 15.4788 18.3738 15.5515 18.3738 15.625C18.3738 15.6985 18.3579 15.7712 18.3272 15.838L12.9418 22.2311C12.9016 22.2767 12.8649 22.3254 12.8321 22.3765C12.4951 22.891 12.2967 23.4837 12.256 24.0974C12.2153 24.711 12.3338 25.3248 12.5999 25.8792C14.8628 30.512 19.5313 35.1448 24.2151 37.4077C24.7728 37.6724 25.3895 37.788 26.0052 37.7433C26.6209 37.6986 27.2144 37.495 27.728 37.1526C27.7765 37.1194 27.8249 37.0837 27.8709 37.0454L34.167 31.6881C34.2292 31.6547 34.2978 31.6351 34.3683 31.6307C34.4387 31.6263 34.5093 31.6372 34.5752 31.6626L46.6292 37.0633C46.7276 37.1052 46.8104 37.177 46.8658 37.2686C46.9212 37.3602 46.9464 37.4668 46.9378 37.5735C46.595 40.1695 45.3186 42.5519 43.3472 44.2755C41.3758 45.999 38.8443 46.9457 36.2257 46.9386Z" fill="#397DFA"/>
</svg>
