<svg width="30" height="30" viewBox="0 0 30 30" fill="none" xmlns="http://www.w3.org/2000/svg">
<path d="M6.25 26.25C5.5625 26.25 4.97417 26.0054 4.485 25.5163C3.99583 25.0271 3.75083 24.4383 3.75 23.75V6.25C3.75 5.5625 3.995 4.97417 4.485 4.485C4.975 3.99583 5.56333 3.75083 6.25 3.75H17.5V6.25H6.25V23.75H23.75V12.5H26.25V23.75C26.25 24.4375 26.0054 25.0263 25.5163 25.5163C25.0271 26.0063 24.4383 26.2508 23.75 26.25H6.25ZM10 21.25V18.75H20V21.25H10ZM10 17.5V15H20V17.5H10ZM10 13.75V11.25H20V13.75H10ZM21.25 11.25V8.75H18.75V6.25H21.25V3.75H23.75V6.25H26.25V8.75H23.75V11.25H21.25Z" fill="#397DFA"/>
</svg>
