<svg width="31" height="30" viewBox="0 0 31 30" fill="none" xmlns="http://www.w3.org/2000/svg">
<path d="M15.25 0C19.2282 0 23.0436 1.58035 25.8566 4.3934C28.6696 7.20644 30.25 11.0218 30.25 15C30.25 18.9782 28.6696 22.7936 25.8566 25.6066C23.0436 28.4196 19.2282 30 15.25 30C11.2718 30 7.45644 28.4196 4.6434 25.6066C1.83035 22.7936 0.25 18.9782 0.25 15C0.25 11.0218 1.83035 7.20644 4.6434 4.3934C7.45644 1.58035 11.2718 0 15.25 0ZM13.3814 17.9593L10.0493 14.625C9.92983 14.5055 9.78801 14.4108 9.63194 14.3461C9.47586 14.2815 9.30858 14.2482 9.13964 14.2482C8.97071 14.2482 8.80342 14.2815 8.64735 14.3461C8.49127 14.4108 8.34946 14.5055 8.23 14.625C7.98875 14.8663 7.85321 15.1935 7.85321 15.5346C7.85321 15.8758 7.98875 16.203 8.23 16.4443L12.4729 20.6871C12.592 20.8072 12.7337 20.9025 12.8898 20.9675C13.0459 21.0325 13.2134 21.066 13.3825 21.066C13.5516 21.066 13.7191 21.0325 13.8752 20.9675C14.0313 20.9025 14.173 20.8072 14.2921 20.6871L23.0779 11.8993C23.1989 11.7803 23.2952 11.6386 23.3612 11.4822C23.4272 11.3258 23.4616 11.158 23.4624 10.9882C23.4632 10.8185 23.4303 10.6503 23.3658 10.4934C23.3013 10.3364 23.2063 10.1937 23.0863 10.0737C22.9664 9.95358 22.8239 9.85843 22.667 9.79371C22.5101 9.72899 22.3419 9.69597 22.1722 9.69656C22.0025 9.69715 21.8346 9.73133 21.6781 9.79714C21.5217 9.86295 21.3798 9.95909 21.2607 10.08L13.3814 17.9593Z" fill="#397DFA"/>
</svg>
